<?xml version="1.0" standalone="no"?>
<!DOCTYPE svg PUBLIC "-//W3C//DTD SVG 20010904//EN"
 "http://www.w3.org/TR/2001/REC-SVG-20010904/DTD/svg10.dtd">
<svg version="1.0" xmlns="http://www.w3.org/2000/svg"
 width="399.000000pt" height="400.000000pt" viewBox="0 0 399.000000 400.000000"
 preserveAspectRatio="xMidYMid meet">
<metadata>
Created by potrace 1.16, written by Peter Selinger 2001-2019
</metadata>
<g transform="translate(0.000000,400.000000) scale(0.100000,-0.100000)"
fill="#000000" stroke="none">
<path d="M1781 3939 c-283 -30 -612 -146 -846 -299 -322 -211 -589 -522 -734
-857 -114 -263 -162 -498 -162 -793 0 -464 156 -892 453 -1245 298 -354 670
-571 1155 -671 105 -22 471 -31 600 -14 667 84 1267 529 1539 1141 127 287
180 590 163 924 -25 454 -214 883 -539 1219 -177 183 -338 301 -555 407 -331
161 -704 226 -1074 188z m569 -332 c313 -75 562 -208 787 -421 380 -359 566
-882 498 -1399 -48 -368 -205 -686 -470 -952 -260 -260 -574 -416 -945 -471
-146 -21 -398 -14 -542 15 -565 115 -1020 496 -1227 1029 -115 297 -140 625
-71 943 98 452 413 870 827 1095 144 79 379 158 546 183 34 5 159 8 277 6 187
-3 228 -6 320 -28z"/>
<path d="M1277 2529 c-273 -270 -500 -501 -503 -514 -3 -13 0 -34 8 -47 7 -12
234 -243 505 -512 462 -459 494 -488 520 -482 49 12 53 27 53 200 l0 161 -332
333 -333 333 333 329 332 328 0 164 c0 147 -2 167 -18 181 -44 40 -45 40 -565
-474z"/>
<path d="M2170 3000 c-18 -18 -20 -33 -20 -178 l0 -157 335 -335 335 -335
-335 -330 -336 -330 3 -164 3 -164 27 -20 c23 -17 31 -18 55 -8 16 6 248 231
516 499 425 426 487 491 487 517 0 27 -63 93 -498 528 -532 531 -524 525 -572
477z"/>
</g>
</svg>
